<svg xmlns="http://www.w3.org/2000/svg" width="151.29" height="151.24" viewBox="0 0 151.29 151.24">
  <defs>
    <style>
      .cls-1 {
        fill: #d74440;
      }

      .cls-2, .cls-3 {
        fill: #aa3030;
      }

      .cls-3, .cls-4, .cls-5 {
        stroke: #000;
        stroke-miterlimit: 10;
      }

      .cls-3, .cls-4 {
        stroke-width: 4px;
      }

      .cls-4, .cls-5 {
        fill: none;
        stroke-linecap: round;
      }

      .cls-5 {
        stroke-width: 4.01px;
      }
    </style>
  </defs>
  <title>Covid-19</title>
  <g id="Layer_2" data-name="Layer 2">
    <g id="covid-19">
      <g id="Covid-19-2" data-name="Covid-19">
        <g id="dots">
          <g>
            <circle class="cls-1" cx="76.51" cy="75.85" r="53.5"/>
            <path d="M76.51,24.35A51.5,51.5,0,1,1,25,75.85a51.56,51.56,0,0,1,51.5-51.5m0-4A55.5,55.5,0,1,0,132,75.85a55.5,55.5,0,0,0-55.5-55.5Z"/>
          </g>
          <g>
            <path class="cls-2" d="M90.1,55.47a8.59,8.59,0,0,1-6.31-14.42,8.65,8.65,0,0,1,6.32-2.76,8.59,8.59,0,0,1,0,17.18Z"/>
            <path d="M90.11,40.29h0a6.59,6.59,0,1,1-4.85,2.12,6.54,6.54,0,0,1,4.85-2.12m0-4a10.58,10.58,0,1,0,7.18,2.81,10.57,10.57,0,0,0-7.18-2.81Z"/>
          </g>
          <g>
            <path class="cls-2" d="M63.63,48.26A2.37,2.37,0,1,1,66,45.89,2.37,2.37,0,0,1,63.63,48.26Z"/>
            <path d="M63.63,45.53a.37.37,0,0,1,0,.73.37.37,0,1,1,0-.73m0-4A4.37,4.37,0,1,0,68,45.89a4.37,4.37,0,0,0-4.36-4.36Z"/>
          </g>
          <g>
            <path class="cls-2" d="M54.4,100.64A10.73,10.73,0,1,1,65.14,89.91,10.74,10.74,0,0,1,54.4,100.64Z"/>
            <path d="M54.4,81.18a8.73,8.73,0,1,1-8.73,8.73,8.74,8.74,0,0,1,8.73-8.73m0-4A12.73,12.73,0,1,0,67.14,89.91,12.73,12.73,0,0,0,54.4,77.18Z"/>
          </g>
          <g>
            <circle class="cls-2" cx="110.27" cy="71.07" r="2.79"/>
            <path d="M110.27,70.28a.79.79,0,1,1-.78.79.79.79,0,0,1,.78-.79m0-4a4.79,4.79,0,1,0,4.79,4.79,4.78,4.78,0,0,0-4.79-4.79Z"/>
          </g>
          <g>
            <path class="cls-2" d="M42.67,67.06A3.3,3.3,0,1,1,46,63.76,3.3,3.3,0,0,1,42.67,67.06Z"/>
            <path d="M42.67,62.47a1.3,1.3,0,1,1-1.3,1.29,1.29,1.29,0,0,1,1.3-1.29m0-4A5.3,5.3,0,1,0,48,63.76a5.29,5.29,0,0,0-5.29-5.29Z"/>
          </g>
          <g>
            <path class="cls-2" d="M78.12,73.85a4.19,4.19,0,1,1,4.19-4.19A4.2,4.2,0,0,1,78.12,73.85Z"/>
            <path d="M78.12,67.47a2.19,2.19,0,1,1-2.19,2.19,2.19,2.19,0,0,1,2.19-2.19m0-4a6.19,6.19,0,1,0,6.19,6.19,6.19,6.19,0,0,0-6.19-6.19Z"/>
          </g>
          <g>
            <path class="cls-2" d="M70.15,116.83a3.48,3.48,0,1,1,3.47-3.48A3.48,3.48,0,0,1,70.15,116.83Z"/>
            <path d="M70.15,111.88a1.48,1.48,0,1,1-1.48,1.47,1.47,1.47,0,0,1,1.48-1.47m0-4a5.48,5.48,0,1,0,5.47,5.47,5.47,5.47,0,0,0-5.47-5.47Z"/>
          </g>
          <circle class="cls-3" cx="100.17" cy="94.7" r="10.59"/>
        </g>
        <g>
          <g>
            <line class="cls-4" x1="75.62" y1="21.76" x2="75.62" y2="2.94"/>
            <line class="cls-4" x1="75.62" y1="148.29" x2="75.62" y2="129.47"/>
          </g>
          <g>
            <line class="cls-4" x1="22.76" y1="75.62" x2="3.94" y2="75.62"/>
            <line class="cls-4" x1="149.29" y1="75.62" x2="130.47" y2="75.62"/>
          </g>
          <g>
            <line class="cls-5" x1="37.62" y1="37.62" x2="24.23" y2="24.23"/>
            <line class="cls-5" x1="127.63" y1="127.63" x2="114.24" y2="114.24"/>
          </g>
          <g>
            <line class="cls-4" x1="37.54" y1="113.7" x2="24.23" y2="127.01"/>
            <line class="cls-4" x1="127.01" y1="24.23" x2="113.7" y2="37.54"/>
          </g>
        </g>
        <g>
          <g>
            <line class="cls-4" x1="54.4" y1="26.55" x2="46.96" y2="9.26"/>
            <line class="cls-4" x1="104.44" y1="142.77" x2="96.99" y2="125.48"/>
          </g>
          <g>
            <line class="cls-4" x1="27.15" y1="96.91" x2="9.86" y2="104.36"/>
            <line class="cls-4" x1="143.37" y1="46.88" x2="126.08" y2="54.32"/>
          </g>
          <g>
            <line class="cls-5" x1="25.77" y1="56.14" x2="8.18" y2="49.13"/>
            <line class="cls-5" x1="144.04" y1="103.22" x2="126.44" y2="96.21"/>
          </g>
          <g>
            <line class="cls-4" x1="55.78" y1="126.05" x2="48.82" y2="143.54"/>
            <line class="cls-4" x1="102.58" y1="8.49" x2="95.62" y2="25.98"/>
          </g>
        </g>
        <g>
          <line class="cls-4" x1="70.59" y1="2" x2="80.65" y2="2"/>
          <line class="cls-4" x1="70.59" y1="149.24" x2="80.65" y2="149.24"/>
        </g>
        <g>
          <line class="cls-4" x1="2" y1="80.65" x2="2" y2="70.59"/>
          <line class="cls-4" x1="149.24" y1="80.65" x2="149.24" y2="70.59"/>
        </g>
        <g>
          <line class="cls-4" x1="20.01" y1="27.12" x2="27.12" y2="20.01"/>
          <line class="cls-4" x1="124.12" y1="131.23" x2="131.23" y2="124.12"/>
        </g>
        <g>
          <line class="cls-4" x1="124.12" y1="20.01" x2="131.23" y2="27.12"/>
          <line class="cls-4" x1="20.01" y1="124.12" x2="27.12" y2="131.23"/>
        </g>
        <g>
          <line class="cls-4" x1="42.1" y1="9.88" x2="51.35" y2="5.93"/>
          <line class="cls-4" x1="99.88" y1="145.3" x2="109.14" y2="141.36"/>
        </g>
        <g>
          <line class="cls-4" x1="98.48" y1="5.46" x2="107.8" y2="9.22"/>
          <line class="cls-4" x1="43.43" y1="142.02" x2="52.76" y2="145.78"/>
        </g>
        <g>
          <line class="cls-4" x1="5.29" y1="53.27" x2="8.99" y2="43.92"/>
          <line class="cls-4" x1="142.25" y1="107.32" x2="145.94" y2="97.96"/>
        </g>
        <g>
          <line class="cls-4" x1="141.14" y1="41.69" x2="145.15" y2="50.92"/>
          <line class="cls-4" x1="6.09" y1="100.32" x2="10.09" y2="109.54"/>
        </g>
      </g>
    </g>
  </g>
</svg>
