<svg xmlns="http://www.w3.org/2000/svg" viewBox="0 0 151.29 151.24">
  <defs>
    <style>
      #covid-19.cls-1 {
        fill: #d74440;
      }

      #covid-19.cls-2 {
        fill: #aa3030;
      }

      #covid-19.cls-3 {
        fill: none;
        stroke: #000;
        stroke-linecap: round;
        stroke-miterlimit: 10;
        stroke-width: 4px;
      }
    </style>
  </defs>
  <g id="Layer_2" data-name="Layer 2">
    <g id="covid-19">
      <g id="Covid-19-2" data-name="Covid-19">
        <g id="dots">
          <g id="covidBody">
            <circle class="cls-1" cx="76.51" cy="75.85" r="53.5"/>
            <path d="M76.51,24.35A51.5,51.5,0,1,1,25,75.85a51.56,51.56,0,0,1,51.5-51.5m0-4A55.5,55.5,0,1,0,132,75.85a55.5,55.5,0,0,0-55.5-55.5Z"/>
          </g>
          <g id="coivdDots">
            <path class="cls-2" d="M70.15,116.83a3.48,3.48,0,1,1,3.47-3.48A3.48,3.48,0,0,1,70.15,116.83Zm30-13.54a8.6,8.6,0,0,1-6.31-14.42,8.65,8.65,0,0,1,6.32-2.76,8.59,8.59,0,0,1,0,17.18ZM54.4,100.64A10.73,10.73,0,1,1,65.14,89.91,10.74,10.74,0,0,1,54.4,100.64Zm55.87-26.79a2.79,2.79,0,1,1,2.79-2.78A2.79,2.79,0,0,1,110.27,73.85Zm-32.15,0a4.19,4.19,0,1,1,4.19-4.19A4.2,4.2,0,0,1,78.12,73.85ZM42.67,67.06A3.3,3.3,0,1,1,46,63.76,3.3,3.3,0,0,1,42.67,67.06ZM90.1,55.47a8.59,8.59,0,0,1-6.31-14.42,8.65,8.65,0,0,1,6.32-2.76,8.59,8.59,0,0,1,0,17.18ZM63.63,48.26A2.37,2.37,0,1,1,66,45.89,2.37,2.37,0,0,1,63.63,48.26Z"/>
            <path d="M90.11,40.29h0a6.59,6.59,0,1,1-4.85,2.12,6.54,6.54,0,0,1,4.85-2.12M63.63,45.53a.37.37,0,0,1,0,.73.37.37,0,1,1,0-.73m-21,16.94a1.3,1.3,0,1,1-1.3,1.29,1.29,1.29,0,0,1,1.3-1.29m35.45,5a2.19,2.19,0,1,1-2.19,2.19,2.19,2.19,0,0,1,2.19-2.19m32.15,2.81a.79.79,0,1,1-.78.79.79.79,0,0,1,.78-.79M54.4,81.18a8.73,8.73,0,1,1-8.73,8.73,8.74,8.74,0,0,1,8.73-8.73m45.78,6.93a6.59,6.59,0,1,1-4.85,2.12,6.54,6.54,0,0,1,4.85-2.12m-30,23.77a1.48,1.48,0,1,1-1.48,1.47,1.47,1.47,0,0,1,1.48-1.47m20-75.59a10.58,10.58,0,1,0,7.18,2.81,10.57,10.57,0,0,0-7.18-2.81ZM63.63,41.53A4.37,4.37,0,1,0,68,45.89a4.37,4.37,0,0,0-4.36-4.36Zm-21,16.94A5.3,5.3,0,1,0,48,63.76a5.29,5.29,0,0,0-5.29-5.29Zm35.45,5a6.19,6.19,0,1,0,6.19,6.19,6.19,6.19,0,0,0-6.19-6.19Zm32.15,2.81a4.79,4.79,0,1,0,4.79,4.79,4.78,4.78,0,0,0-4.79-4.79ZM54.4,77.18A12.73,12.73,0,1,0,67.14,89.91,12.73,12.73,0,0,0,54.4,77.18Zm45.78,6.93a10.58,10.58,0,1,0,7.18,2.81,10.54,10.54,0,0,0-7.18-2.81Zm-30,23.77a5.48,5.48,0,1,0,5.47,5.47,5.47,5.47,0,0,0-5.47-5.47Z"/>
          </g>
        </g>
        <path id="covidSpikes" class="cls-3" d="M75.62,21.76V2.94m0,145.35V129.47M22.76,75.62H3.94m145.35,0H130.47m-92.85-38L24.23,24.23m103.4,103.4-13.39-13.39m-76.7-.54L24.23,127M127,24.23,113.7,37.54m-59.3-11L47,9.26M97,125.48l7.45,17.29M27.15,96.91,9.86,104.36m116.22-50,17.29-7.44M25.77,56.14l-17.59-7M144,103.22l-17.6-7M55.78,126.05l-7,17.49m53.76-135L95.62,26m-25-24H80.65M70.59,149.24H80.65M2,80.65V70.59M149.24,80.65V70.59M20,27.12,27.12,20M131.23,124.12l-7.11,7.11m0-111.22,7.11,7.11M20,124.12l7.11,7.11M42.1,9.88l9.25-4M99.88,145.3l9.26-3.94M98.48,5.46l9.32,3.76m-55,136.56L43.43,142M5.29,53.27,9,43.92m133.26,63.4L145.94,98m-4.8-56.27,4,9.23M6.09,100.32l4,9.22"/>
      </g>
    </g>
  </g>
</svg>
