<svg xmlns="http://www.w3.org/2000/svg" width="135.82" height="166.55" viewBox="0 0 135.82 166.55">
  <defs>
    <style>
      .cls-1 {
        fill: #ddb9af;
      }

      .cls-2 {
        fill: #48c4ef;
      }

      .cls-3 {
        fill: #d6eefa;
      }

      .cls-4 {
        fill: #4dd59b;
      }

      .cls-5, .cls-6 {
        fill: none;
        stroke: #000;
        stroke-linecap: round;
        stroke-width: 4px;
      }

      .cls-5 {
        stroke-linejoin: round;
      }

      .cls-6 {
        stroke-miterlimit: 10;
      }
    </style>
  </defs>
  <title>Asset 1</title>
  <g id="Layer_2" data-name="Layer 2">
    <g id="frontLineWorker">
      <g>
        <g>
          <path class="cls-1" d="M105.71,63.86s19.39,2.63.62,22.7c0,0-4.37,26.59-24.28,35.45,0,0-4.21,6.89-.82,10.73a27,27,0,0,1,4.91,9.41l-17.56,9.32L50.14,139.33s7.93-8.52,5.14-15.31A45.34,45.34,0,0,1,30.93,93.13S7.52,63.64,27.53,66.78c0,0,5.92-21.39,36-23.24S105.71,63.86,105.71,63.86Z"/>
          <path class="cls-2" d="M31.9,98S43.76,87.35,51.08,84.42s24.39-14.07,49.84,12.36c0,0-3.94,29-33.13,28.23S31.9,98,31.9,98Z"/>
          <path class="cls-3" d="M27.56,63.86s45.49-13.36,78.15,0c0,0-5.44,23.46-38.51,9.23C67.2,73.09,38.16,89.32,27.56,63.86Z"/>
          <path class="cls-4" d="M2,161.22s8.77-18.59,14.35-19.42,32.95-4.26,32.95-4.26l19.56,13L88.34,137l31.53,4.79,13.95,19.42S62.33,171.8,2,161.22Z"/>
          <path class="cls-4" d="M66,2s-31,6.59-33.53,10.12-13.85,9.77-13.77,21.3S18.92,49.12,21.32,53,26.9,62.7,26.9,62.7s11.59-12,17-12.9,13.66-7.67,23.3-6,26.13,3.85,32.89,13.58,5.62,6.49,5.62,6.49,8-16.17,8.05-20.76-1.29-20.59-3.2-23.37S91.41.63,66,2Z"/>
        </g>
        <g>
          <path class="cls-5" d="M105.28,62.7S112.7,125,66.19,125C24.14,125,27.6,62.7,27.6,62.7S67.68,20.15,105.28,62.7Z"/>
          <path class="cls-5" d="M105.71,63.86s17.83-37.93-.7-50.14C78.17-4,50.89,0,29.38,14.71c-5.76,3.94-20,18.8-2.48,48C26.9,62.7,76.79,50.33,105.71,63.86Z"/>
          <path class="cls-5" d="M104.28,88.76s20.48-20.11,1.26-22.92"/>
          <path class="cls-5" d="M28.92,89.49S7.83,68.65,27.05,65.84"/>
          <path class="cls-5" d="M32.42,98C34,97.5,67.19,57.74,102,98"/>
          <circle cx="52.46" cy="67.61" r="3.75"/>
          <circle cx="80.25" cy="66.78" r="3.75"/>
          <path class="cls-6" d="M55.28,124s1.06,9.43-2.73,13.06c0,0-29.77,4.29-33.73,4S7.44,149.16,2,160.29"/>
          <path class="cls-6" d="M80.54,123.31s-1.06,9.44,2.74,13.07c0,0,29.76,4.29,33.72,4,3.07-.19,12.27,10.55,16.82,19.87"/>
          <line class="cls-6" x1="68.86" y1="150.58" x2="48.31" y2="137.54"/>
          <line class="cls-6" x1="88.34" y1="137.01" x2="48.81" y2="164.55"/>
          <path class="cls-6" d="M105.63,67.61S88.86,86.87,67.2,73.09c0,0-21.76,14.18-39.67-5.36"/>
        </g>
      </g>
    </g>
  </g>
</svg>
