<svg xmlns="http://www.w3.org/2000/svg" width="212.87" height="145.33" viewBox="0 0 212.87 145.33">
  <defs>
    <style>
      .cls-1 {
        fill: #562f26;
      }

      .cls-1, .cls-2, .cls-3, .cls-4 {
        stroke: #000;
        stroke-width: 4px;
      }

      .cls-1, .cls-4 {
        stroke-linejoin: round;
      }

      .cls-2, .cls-3 {
        fill: #f7cbe2;
        stroke-miterlimit: 10;
      }

      .cls-3 {
        stroke-linecap: round;
      }

      .cls-4 {
        fill: #754639;
      }
    </style>
  </defs>
  <title>handwashing</title>
  <g id="Layer_2" data-name="Layer 2">
    <g id="handwash">
      <g id="handwashing">
        <path id="leftHand" class="cls-1" d="M193.93,20.34,210.87,72s-12.7.67-29.48,10.63-28.37,18.22-51,27.13C111.73,117.09,88,125.34,80.26,128a6.93,6.93,0,0,1-7.05-1.36,5.08,5.08,0,0,1-1.5-5.09A8,8,0,0,1,76.46,116L114,96.8,63.87,110.88s-6.89,2-9.4-1.86-1.28-6.82,3.91-9.58c7.06-3.76,49.37-22.39,49.37-22.39L49.06,92.59s-6.51,2.13-8.3-3.59,3-8.08,5-8.71c4.73-1.48,57.13-21,57.13-21l-48.75,9c-3.31.41-11.49,1.37-12-4.8-.42-5.31,2.24-6.37,6.29-7.86,7.3-2.68,62.16-21.14,72.65-22S93.79,24.3,93.79,24.3s-8.58-3.5-7.1-9.18,3.59-4.9,10.73-3.52,32.79,4.47,42.63,5,24.41,9.88,29.43,11.58S193.93,20.34,193.93,20.34Z"/>
        <g id="bubbles">
          <g>
            <circle class="cls-2" cx="64.33" cy="38.77" r="14.58"/>
            <path class="cls-3" d="M58,42.55s-2.42-8.28,6.38-10.35"/>
          </g>
          <g>
            <circle class="cls-2" cx="35.03" cy="65.19" r="10.58"/>
            <path class="cls-3" d="M30.4,67.93s-1.75-6,4.63-7.51"/>
          </g>
          <circle class="cls-2" cx="36.96" cy="11.78" r="5.56"/>
          <circle class="cls-3" cx="24.82" cy="36.67" r="4.47"/>
          <circle class="cls-3" cx="66.44" cy="4.11" r="2.11"/>
          <circle class="cls-3" cx="90.36" cy="67.84" r="11.71"/>
          <circle class="cls-3" cx="10.77" cy="72.64" r="3.13"/>
          <circle class="cls-3" cx="3.76" cy="25.95" r="1.76"/>
        </g>
        <path id="rightHand" class="cls-4" d="M202.4,80v54.36s-20.64-6.83-39.69-2.59-32.63,8.47-56.91,9.88c-20,1.17-45.16,1.61-53.33,1.73a7,7,0,0,1-6.28-3.49,5.11,5.11,0,0,1,.17-5.3,8,8,0,0,1,6.23-3.77l41.65-6.58-52-2.24s-7.18-.23-8.36-4.7.91-6.88,6.71-7.88c7.88-1.38,53.88-5.89,53.88-5.89L33.86,100s-6.85,0-6.77-6,5.38-6.73,7.5-6.7c4.95.07,60.82-2.12,60.82-2.12L46.29,78.46c-3.28-.64-11.35-2.27-9.89-8.29,1.25-5.18,4.11-5.36,8.42-5.51,7.77-.27,65.65-.71,75.89,1.76S97.65,49,97.65,49s-7.06-6-3.89-10.94,4.95-3.53,11.3,0S134.82,52.54,144,56.13s20.12,17,24.35,20.18S202.4,80,202.4,80Z"/>
      </g>
    </g>
  </g>
</svg>
