<svg xmlns="http://www.w3.org/2000/svg" width="138.25" height="131.8" viewBox="0 0 138.25 131.8">
  <defs>
    <style>
      .cls-1 {
        fill: #48c4ef;
      }

      .cls-1, .cls-2, .cls-3 {
        stroke: #000;
        stroke-miterlimit: 10;
        stroke-width: 4px;
      }

      .cls-2, .cls-3 {
        fill: none;
      }

      .cls-2 {
        stroke-linecap: round;
      }
    </style>
  </defs>
  <title>mask</title>
  <g id="Layer_2" data-name="Layer 2">
    <g id="mask">
      <g id="mask-2" data-name="mask">
        <path id="colour" class="cls-1" d="M72.62,18.62c10.48,0,23.71,13,31.05,19.42,14.89,13.09,22.07,21.26,22.07,41.49,0,30.7-22.42,50.27-53.12,50.27h0c-30.7,0-53.12-19.57-53.12-50.27,0-20.23,7.19-28.4,22.08-41.49,7.33-6.45,20.57-19.42,31-19.42"/>
        <path class="cls-2" d="M55.86,38.74s16.76-16.76,33.53,0"/>
        <line class="cls-2" x1="47.03" y1="66" x2="98.21" y2="66"/>
        <line class="cls-2" x1="39.71" y1="80.04" x2="105.53" y2="80.04"/>
        <line class="cls-2" x1="44.21" y1="95.3" x2="101.03" y2="95.3"/>
        <ellipse cx="27.44" cy="79.95" rx="3.44" ry="5.03"/>
        <ellipse cx="117.79" cy="79.95" rx="3.44" ry="5.03"/>
        <path class="cls-3" d="M92,27.36c15,1.74,33,.74,43-13.26a8,8,0,0,0-5-12c-7-1-12,6-13,12-3,16,7,28,14,41,3,6,3,13-1,18-4,3-8,5-12.26,7.64"/>
        <path class="cls-3" d="M27.44,80C16.05,78.1,4.05,71.1,2.05,59.1c-1-17,12-33,29-35,9-1,17,1.09,25.69.7"/>
      </g>
    </g>
  </g>
</svg>
