<svg xmlns="http://www.w3.org/2000/svg" viewBox="0 0 138.25 131.8">
  <defs>
    <style>
      #mask .cls-1 {
        fill: #48c4ef;
      }

      #mask .cls-2 {
        fill: none;
        stroke: #000;
        stroke-linecap: round;
        stroke-miterlimit: 10;
        stroke-width: 4px;
      }
    </style>
  </defs>
  <g id="Layer_2" data-name="Layer 2">
    <g id="mask">
      <g id="mask-2" data-name="mask">
        <path id="mask-3" data-name="mask" class="cls-1" d="M72.62,18.62c10.48,0,23.71,13,31.05,19.42,14.89,13.09,22.07,21.26,22.07,41.49,0,30.7-22.42,50.27-53.12,50.27h0c-30.7,0-53.12-19.57-53.12-50.27,0-20.23,7.19-28.4,22.08-41.49,7.33-6.45,20.57-19.42,31-19.42"/>
        <path id="holesMask" d="M30.88,80c0,2.78-1.54,5-3.44,5S24,82.73,24,80s1.54-5,3.44-5S30.88,77.17,30.88,80Zm86.91-5c-1.9,0-3.44,2.25-3.44,5s1.54,5,3.44,5,3.44-2.25,3.44-5S119.69,74.92,117.79,74.92Z"/>
        <path id="outlinesMask" class="cls-2" d="M55.86,38.74s16.76-16.76,33.53,0M47,66H98.21M39.71,80h65.82M44.21,95.3H101m16.76-14.56c4.26-2.64,8.26-4.64,12.26-7.64,4-5,4-12,1-18-7-13-17-25-14-41,1-6,6-13,13-12a8,8,0,0,1,5,12c-10,14-28,15-43,13.26M56.74,24.8c-8.69.39-16.69-1.7-25.69-.7-17,2-30,18-29,35,2,12,14,19,25.39,20.85M72.62,18.62c-10.47,0-23.71,13-31,19.42C26.69,51.13,19.5,59.3,19.5,79.53c0,30.7,22.42,50.27,53.12,50.27h0c30.7,0,53.12-19.57,53.12-50.27,0-20.23-7.18-28.4-22.07-41.49-7.34-6.45-20.57-19.42-31-19.42"/>
      </g>
    </g>
  </g>
</svg>
