<svg xmlns="http://www.w3.org/2000/svg" width="133.95" height="140.93" viewBox="0 0 133.95 140.93">
  <defs>
    <style>
      .cls-1 {
        fill: #2c5d73;
      }

      .cls-1, .cls-2, .cls-3 {
        stroke: #000;
        stroke-width: 4px;
      }

      .cls-1, .cls-2 {
        stroke-linecap: round;
        stroke-linejoin: round;
      }

      .cls-2, .cls-3 {
        fill: #edbd21;
      }

      .cls-3 {
        stroke-miterlimit: 10;
      }
    </style>
  </defs>
  <title>Asset 6</title>
  <g id="Layer_2" data-name="Layer 2">
    <g id="quarentine">
      <g>
        <polygon class="cls-1" points="131.95 66.47 67.48 2 2 67.48 16.39 67.37 16.39 138.93 117.56 138.93 117.56 66.58 131.95 66.47"/>
        <path class="cls-2" d="M49.08,70.47s0-22.43,18.1-22.64S84.86,70.47,84.86,70.47Z"/>
        <path class="cls-1" d="M56.88,70.47s0-16.11,10.21-16.26,10,16.26,10,16.26Z"/>
        <rect class="cls-3" x="37.57" y="70.38" width="58.81" height="47.5" rx="12"/>
        <path d="M73.69,85A6.72,6.72,0,1,0,64,91h0l-3.2,12.35a1.65,1.65,0,0,0,1.59,2.06h9.18a1.65,1.65,0,0,0,1.6-2.06L70,91h0A6.71,6.71,0,0,0,73.69,85Z"/>
      </g>
    </g>
  </g>
</svg>
