<svg xmlns="http://www.w3.org/2000/svg" width="140.17" height="129.78" viewBox="0 0 140.17 129.78">
  <defs>
    <style>
      .cls-1 {
        fill: #f48ebd;
      }

      .cls-1, .cls-3, .cls-4, .cls-5, .cls-6 {
        stroke: #000;
        stroke-miterlimit: 10;
      }

      .cls-1, .cls-3 {
        stroke-width: 4px;
      }

      .cls-2 {
        fill: #ce679b;
      }

      .cls-3, .cls-5 {
        fill: none;
      }

      .cls-4, .cls-6 {
        fill: #f7cbe2;
      }

      .cls-4, .cls-5 {
        stroke-width: 3px;
      }

      .cls-5, .cls-6 {
        stroke-linecap: round;
      }

      .cls-6 {
        stroke-width: 2.36px;
      }
    </style>
  </defs>
  <title>soap</title>
  <g id="Layer_2" data-name="Layer 2">
    <g id="soap">
      <g id="soap-2" data-name="soap">
        <path class="cls-1" d="M2.58,75.68c-.85,5.36-.7,15.53,0,21.7s-.35,6.18,4.24,9.18,31.94,18.18,31.94,18.18,11.12,6.35,21.88.7,70.24-40.23,70.24-40.23,6.53-4.15,6.88-15c.45-13.94,2.47-19.95-9.7-25.95s-27.71-15.88-27.71-15.88A29.18,29.18,0,0,0,76,30.32C63.47,37.38,15.58,64.5,15.58,64.5S3.35,70.85,2.58,75.68Z"/>
        <path class="cls-2" d="M69.71,42.62l1.44,5.27s12.38-9.14,20-6.9,30,14.77,30,14.77-2.45-12.88-32.45-20.38C88.67,35.38,72.2,40.07,69.71,42.62Z"/>
        <path class="cls-2" d="M20.2,74.82S18.32,66.51,50.81,53.9l2.65,3.83S21.78,76,20.2,74.82Z"/>
        <path class="cls-3" d="M2.22,79s1.07.92,14.13,8.51,21,12.18,21,12.18S48.64,108,64,99.68s71.62-39.6,72.7-42.18a8.11,8.11,0,0,0,.4-5"/>
        <path class="cls-3" d="M23.06,68.79s-7.06,5-1.24,8.39,23.29,13.5,23.29,13.5a16.63,16.63,0,0,0,15.36,0c8.29-4.24,56.82-31.94,56.82-31.94s9.18-4.42-.88-10.42S94.88,36.15,94.88,36.15A18.24,18.24,0,0,0,79.7,37C72.11,41.26,23.06,68.79,23.06,68.79Z"/>
        <path class="cls-3" d="M21.82,76.12s59.12-34,60.71-34.59,7.41-1.32,10.58,0,25.5,14.21,25.5,14.21"/>
        <circle class="cls-4" cx="80.06" cy="68.08" r="3.58"/>
        <circle class="cls-4" cx="59.59" cy="47.61" r="10.12"/>
        <circle class="cls-4" cx="30.06" cy="44.19" r="3.42"/>
        <circle class="cls-4" cx="66" cy="19.91" r="7.82"/>
        <circle class="cls-4" cx="83.11" cy="4.56" r="3.06"/>
        <circle class="cls-4" cx="53.82" cy="68.08" r="4.35"/>
        <path class="cls-5" d="M55.1,49.38s-1.65-5.64,4.35-7.06"/>
        <path class="cls-6" d="M62.57,21.94A4.32,4.32,0,0,1,66,16.39"/>
      </g>
    </g>
  </g>
</svg>
