<svg xmlns="http://www.w3.org/2000/svg" width="140.17" height="129.78" viewBox="0 0 140.17 129.78">
  <defs>
    <style>
      .cls-1 {
        fill: #f48ebd;
      }

      .cls-1, .cls-3, .cls-4, .cls-5, .cls-6 {
        stroke: #000;
        stroke-miterlimit: 10;
      }

      .cls-1, .cls-3 {
        stroke-width: 4px;
      }

      .cls-2 {
        fill: #ce679b;
      }

      .cls-3, .cls-5 {
        fill: none;
      }

      .cls-4, .cls-6 {
        fill: #f7cbe2;
      }

      .cls-4, .cls-5 {
        stroke-width: 3px;
      }

      .cls-5, .cls-6 {
        stroke-linecap: round;
      }

      .cls-6 {
        stroke-width: 2.36px;
      }
    </style>
  </defs>
  <title>soap</title>
  <g id="Layer_2" data-name="Layer 2">
    <g id="soap">
      <g id="soap-2" data-name="soap">
        <path class="cls-1" d="M2.58,75.68c-.85,5.36-.7,15.53,0,21.7s-.35,6.18,4.24,9.18,31.94,18.18,31.94,18.18,11.12,6.35,21.88.7,70.24-40.23,70.24-40.23,6.53-4.15,6.88-15c.45-13.94,2.47-19.95-9.7-25.95s-27.71-15.88-27.71-15.88A29.18,29.18,0,0,0,76,30.32C63.47,37.38,15.58,64.5,15.58,64.5S3.35,70.85,2.58,75.68Z"/>
        <path class="cls-2" d="M51.22,55.7a1,1,0,0,0-1.55-.58c-.89.63-1.79,1.25-2.69,1.87l-.83.44a.82.82,0,0,0-.75,0l-.24.13h0l-.07,0c-.88.45-1.73.95-2.56,1.47q-2.47,1.42-4.9,2.95a23.58,23.58,0,0,0-5.25,2.73l-.09,0L26.51,68.6a.78.78,0,0,0-.9-.09l-.23.13h0l0,0a15.45,15.45,0,0,0-5,4,1,1,0,0,0,.27,1.44,1,1,0,0,0,1.74.52,10.17,10.17,0,0,1,1.82-2,1,1,0,0,0,.27-.33L25,72a1,1,0,0,0,1.18.07L29.29,70a1,1,0,0,0,.26-.12l1.32-.93,6.6-4.4a1,1,0,0,0,1.15.06c.62-.42,1.26-.81,1.88-1.22a.92.92,0,0,0,1-.09c1.64-1.12,3.25-2.27,4.87-3.41,1.25-.7,2.5-1.37,3.77-2h.35a.84.84,0,0,0,1.25.1,1.76,1.76,0,0,0,.65-.89A1,1,0,0,0,51.22,55.7Z"/>
        <path class="cls-2" d="M119.3,53.82a10.53,10.53,0,0,0-1.37-2.62,1,1,0,0,0-.25-.31h0a10.56,10.56,0,0,0-1.83-1.83,1,1,0,0,0-1-.11,7.68,7.68,0,0,0-1.81-1l-.72-.52a1,1,0,0,0-1-.07A16.11,16.11,0,0,0,109.33,46c-1.37-.82-2.77-1.59-4.18-2.34a38.87,38.87,0,0,0-4.76-3,30.39,30.39,0,0,0-3.77-1.59,1.13,1.13,0,0,0-.55-1,11.86,11.86,0,0,0-4.38-1.38,10.13,10.13,0,0,0-2.91-.95.9.9,0,0,0-1-.84,18.63,18.63,0,0,0-3.29.74l.43-.3a1,1,0,0,0-.94-1.75,9.46,9.46,0,0,0-1.19.6.84.84,0,0,0-.71,0c-.54.25-1.08.52-1.61.8h0l-.16.1-.36.2a1.08,1.08,0,0,0-.32.13l-.29.21a29.66,29.66,0,0,0-2.92,2,.92.92,0,0,0-.38.82c-.21.21-.42.42-.62.64a.89.89,0,0,0-.24.62c-.28.31-.55.62-.82.94a1,1,0,0,0-1.22.25L72.27,42a.8.8,0,0,0-.54.36c0,.07-.08.14-.13.22h0l-1.71,2.9c-.52.88.77,1.76,1.5,1.21a1,1,0,0,0,1-.79,8.24,8.24,0,0,1,.24-.85s0,0,0,0l.14-.2a1.22,1.22,0,0,0,.8,0,1,1,0,0,0,1,0c1.47-.9,2.9-1.85,4.32-2.82.65-.38,1.3-.76,2-1.12l1.28-.58c.43-.17.87-.32,1.31-.48.57.58,1.53.44,2.52,0a8.82,8.82,0,0,0,2.8,1,1.85,1.85,0,0,0,1.84-1.31l.52.11,8.37,5.19a1.05,1.05,0,0,0,1.17,0L108,49a.79.79,0,0,0,.91-.07,1.15,1.15,0,0,0,.19.26,6.34,6.34,0,0,0,3,1.55c.41.48.81,1,1.26,1.4A13.06,13.06,0,0,0,118,55.08,1,1,0,0,0,119.3,53.82Z"/>
        <path class="cls-3" d="M2.22,79s1.07.92,14.13,8.51,21,12.18,21,12.18S48.64,108,64,99.68s71.62-39.6,72.7-42.18a8.11,8.11,0,0,0,.4-5"/>
        <path class="cls-3" d="M23.06,68.79s-7.06,5-1.24,8.39,23.29,13.5,23.29,13.5a16.63,16.63,0,0,0,15.36,0c8.29-4.24,56.82-31.94,56.82-31.94s9.18-4.42-.88-10.42S94.88,36.15,94.88,36.15A18.24,18.24,0,0,0,79.7,37C72.11,41.26,23.06,68.79,23.06,68.79Z"/>
        <path class="cls-3" d="M21.82,76.12s59.12-34,60.71-34.59,7.41-1.32,10.58,0,25.5,14.21,25.5,14.21"/>
        <circle class="cls-4" cx="80.06" cy="68.08" r="3.58"/>
        <circle class="cls-4" cx="59.59" cy="47.61" r="10.12"/>
        <circle class="cls-4" cx="30.06" cy="44.19" r="3.42"/>
        <circle class="cls-4" cx="66" cy="19.91" r="7.82"/>
        <circle class="cls-4" cx="83.11" cy="4.56" r="3.06"/>
        <circle class="cls-4" cx="53.82" cy="68.08" r="4.35"/>
        <path class="cls-5" d="M55.1,49.38s-1.65-5.64,4.35-7.06"/>
        <path class="cls-6" d="M62.57,21.94A4.32,4.32,0,0,1,66,16.39"/>
      </g>
    </g>
  </g>
</svg>
