<svg xmlns="http://www.w3.org/2000/svg" width="116.46" height="105.21" viewBox="0 0 116.46 105.21">
  <defs>
    <style>
      .cls-1 {
        fill: #ddb9af;
      }

      .cls-2, .cls-4 {
        fill: #edbd21;
      }

      .cls-3 {
        fill: #ffd8cf;
      }

      .cls-4 {
        stroke: #000;
        stroke-miterlimit: 10;
        stroke-width: 4px;
      }
    </style>
  </defs>
  <title>socialDistance</title>
  <g id="Layer_2" data-name="Layer 2">
    <g id="socialDistancing">
      <g id="distance">
        <g id="person2">
          <g>
            <path class="cls-1" d="M18.76,20.27a9.14,9.14,0,1,1,9.13-9.14A9.15,9.15,0,0,1,18.76,20.27Z"/>
            <path d="M18.76,4a7.14,7.14,0,1,1-7.14,7.13A7.14,7.14,0,0,1,18.76,4m0-4A11.14,11.14,0,1,0,29.89,11.13,11.13,11.13,0,0,0,18.76,0Z"/>
          </g>
          <g>
            <path class="cls-2" d="M12,103.21A4.42,4.42,0,0,1,7.56,98.8v-35l-1.73-.24A4.42,4.42,0,0,1,2,59.22V34.52a4.42,4.42,0,0,1,4.41-4.41H31.1a4.42,4.42,0,0,1,4.42,4.41v24.7a4.42,4.42,0,0,1-3.83,4.36L30,63.82v35a4.41,4.41,0,0,1-4.41,4.41Z"/>
            <path d="M31.11,32.11a2.45,2.45,0,0,1,2.41,2.41v24.7a2.41,2.41,0,0,1-2.1,2.38L28,62.07V98.8a2.44,2.44,0,0,1-2.41,2.41H12A2.44,2.44,0,0,1,9.56,98.8V62.07L6.09,61.6A2.41,2.41,0,0,1,4,59.22V34.52a2.44,2.44,0,0,1,2.41-2.41h24.7m0-4H6.41A6.43,6.43,0,0,0,0,34.52v24.7a6.42,6.42,0,0,0,5.56,6.34V98.8A6.43,6.43,0,0,0,12,105.21H25.54A6.42,6.42,0,0,0,32,98.8V65.56a6.43,6.43,0,0,0,5.57-6.34V34.52a6.44,6.44,0,0,0-6.41-6.41Z"/>
          </g>
        </g>
        <g id="person1">
          <g>
            <path class="cls-3" d="M97.7,20.27a9.14,9.14,0,1,1,9.14-9.14A9.15,9.15,0,0,1,97.7,20.27Z"/>
            <path d="M97.7,4a7.14,7.14,0,1,1-7.13,7.13A7.14,7.14,0,0,1,97.7,4m0-4a11.14,11.14,0,1,0,11.14,11.13A11.13,11.13,0,0,0,97.7,0Z"/>
          </g>
          <g>
            <path class="cls-2" d="M90.92,103.21a4.41,4.41,0,0,1-4.41-4.41v-35l-1.74-.24a4.42,4.42,0,0,1-3.83-4.36V34.52a4.42,4.42,0,0,1,4.41-4.41h24.7a4.42,4.42,0,0,1,4.41,4.41v24.7a4.42,4.42,0,0,1-3.83,4.36l-1.73.24v35a4.42,4.42,0,0,1-4.41,4.41Z"/>
            <path d="M110.05,32.11a2.44,2.44,0,0,1,2.41,2.41v24.7a2.41,2.41,0,0,1-2.09,2.38l-3.47.47V98.8a2.44,2.44,0,0,1-2.41,2.41H90.92a2.44,2.44,0,0,1-2.41-2.41V62.07L85,61.6a2.41,2.41,0,0,1-2.1-2.38V34.52a2.45,2.45,0,0,1,2.41-2.41h24.7m0-4H85.35a6.44,6.44,0,0,0-6.41,6.41v24.7a6.43,6.43,0,0,0,5.57,6.34V98.8a6.42,6.42,0,0,0,6.41,6.41h13.57a6.42,6.42,0,0,0,6.41-6.41V65.56a6.42,6.42,0,0,0,5.56-6.34V34.52a6.43,6.43,0,0,0-6.41-6.41Z"/>
          </g>
        </g>
        <polyline class="cls-4" points="46.96 66.66 41.77 71.85 46.96 77.04"/>
        <polyline class="cls-4" points="68.36 66.66 73.55 71.85 68.36 77.04"/>
        <line class="cls-4" x1="41.77" y1="71.85" x2="73.55" y2="71.85"/>
        <g id="_2m" data-name="2m">
          <g>
            <path class="cls-2" d="M42.8,104.26V104c0-2.83,1.26-5.12,4.77-7.68,2.29-1.67,3-2.25,3-3.67s-.69-2.19-2.05-2.19a2.05,2.05,0,0,0-2.15,1.43,1.46,1.46,0,0,1-1.37.95h-.4a1.48,1.48,0,0,1-1.36-2.06c.8-1.79,2.52-3.07,5.28-3.07,4.17,0,5.59,2.48,5.59,4.91s-1,3.5-4,5.6c-2,1.4-2.8,2.33-3.08,3.06h6A1.47,1.47,0,0,1,54.45,103h0A1.47,1.47,0,0,1,53,104.26Z"/>
            <path d="M48.51,87.75c-2.76,0-4.48,1.28-5.28,3.07a1.48,1.48,0,0,0,1.36,2.06H45a1.46,1.46,0,0,0,1.37-.95,2.05,2.05,0,0,1,2.15-1.43c1.36,0,2.05.79,2.05,2.19s-.7,2-3,3.67c-3.51,2.56-4.77,4.85-4.77,7.68v.22H53A1.47,1.47,0,0,0,54.45,103h0A1.47,1.47,0,0,0,53,101.32H47c.28-.73,1.08-1.66,3.08-3.06,3-2.1,4-3.24,4-5.6s-1.42-4.91-5.59-4.91Z"/>
          </g>
          <g>
            <path class="cls-2" d="M57,94.79c0-.81,0-1.63,0-2.44a.84.84,0,0,1,.84-.84h1.78a.84.84,0,0,1,.83.76c0,.26,0,.53.05.76A4,4,0,0,1,64,91.21a3.37,3.37,0,0,1,3.29,1.94,4.42,4.42,0,0,1,3.93-1.94c2.22,0,4,1.37,4,4.68v7.54a.83.83,0,0,1-.83.83H72.69a.83.83,0,0,1-.83-.83V96.32c0-1.15-.42-2.27-1.87-2.27S67.91,95,67.91,97v6.46a.84.84,0,0,1-.84.83H65.28a.84.84,0,0,1-.84-.83v-7c0-1.32-.32-2.39-1.83-2.39s-2.12.88-2.12,3.07v6.29a.83.83,0,0,1-.83.83H57.84a.84.84,0,0,1-.84-.83Z"/>
            <path d="M71.26,91.21a4.42,4.42,0,0,0-3.93,1.94A3.37,3.37,0,0,0,64,91.21,4,4,0,0,0,60.49,93c0-.23,0-.5-.05-.76a.84.84,0,0,0-.83-.76H57.83a.84.84,0,0,0-.84.84c0,.81,0,1.63,0,2.44v8.64a.84.84,0,0,0,.84.83h1.82a.83.83,0,0,0,.83-.83V97.14c0-2.19.68-3.07,2.12-3.07s1.83,1.07,1.83,2.39v7a.84.84,0,0,0,.84.83h1.79a.84.84,0,0,0,.84-.83V97c0-2,.58-2.92,2.08-2.92s1.87,1.12,1.87,2.27v7.11a.83.83,0,0,0,.83.83h1.78a.83.83,0,0,0,.83-.83V95.89c0-3.31-1.82-4.68-4-4.68Z"/>
          </g>
        </g>
      </g>
    </g>
  </g>
</svg>
