<svg xmlns="http://www.w3.org/2000/svg" viewBox="0 0 144.22 157.37">
  <defs>
    <style>
      #temp .cls-1 {
        fill: #d6eefa;
      }

      #temp .cls-2 {
        fill: #48c4ef;
      }

      #temp .cls-3 {
        fill: none;
        stroke: #000;
        stroke-miterlimit: 10;
        stroke-width: 4px;
      }

      #temp .cls-4 {
        fill: #d74440;
      }
    </style>
  </defs>
  <g id="Layer_2" data-name="Layer 2">
    <g id="temp">
      <g id="Covid-19-2" data-name="Covid-19">
        <g id="dots">
          <g id="coivdDots">
            <path d="M0,160.61" transform="translate(-737.36)"/>
          </g>
        </g>
      </g>
    </g>
    <g id="temp">
      <g id="temp-2" data-name="temp">
        <path id="lightblueTemp" class="cls-1" d="M869.59,10.56c17.33,13,0,29.9,0,29.9L839.31,14.1C844,6.1,849.11-4.74,869.59,10.56ZM755.58,147c1.61,2.58-4.87,8.45-10.61,8s-5.91-6.26-5.91-6.26c-1.77-7.77,7.42-8.91,7.42-8.91l9.1,7.16" transform="translate(-737.36)"/>
        <path id="tempFill1" class="cls-2" d="M800.53,112.79c5.7-1.55,8.35-4.47,8.35-4.47L823.2,93.15l46.39-52.69L838.65,13l-59.89,67.3L777,89.74l.71,8s-2.59,7.05-4.59,9.87-26.64,31.28-26.64,31.28l10.7,7.79s20.06-25.89,33.11-33.53" transform="translate(-737.36)"/>
        <path id="tempFill" class="cls-2" d="M790.29,113.15a38.83,38.83,0,0,1,9.41-4" transform="translate(-737.36)"/>
        <path id="outlinesTemp" class="cls-3" d="M875.16,36.63,812.42,107A17.42,17.42,0,0,1,799,112.76a20.94,20.94,0,0,0-16.14,7l-29.42,33a8.08,8.08,0,0,1-11.36.65h0a8.08,8.08,0,0,1-.65-11.36l29.42-33a20.94,20.94,0,0,0,5.07-16.84,17.49,17.49,0,0,1,4.25-14L842.87,7.82a17.53,17.53,0,0,1,24.68-1.4l6.2,5.53A17.53,17.53,0,0,1,875.16,36.63Zm-118,111.81-12-10.7m93.32-125,32.29,28.81" transform="translate(-737.36)"/>
        <g id="redBar">
          <path class="cls-4" d="M810.49,87.84a7.66,7.66,0,0,1-5.09-1.93l-3.57-3.19a7.65,7.65,0,0,1-.61-10.79l33-37a7.67,7.67,0,0,1,5.72-2.54A7.58,7.58,0,0,1,845,34.33l3.57,3.18a7.65,7.65,0,0,1,.62,10.8l-33,37A7.64,7.64,0,0,1,810.49,87.84Z" transform="translate(-737.36)"/>
          <path d="M839.93,34.4h0a5.61,5.61,0,0,1,3.75,1.42L847.25,39a5.68,5.68,0,0,1,.46,8l-33,37a5.67,5.67,0,0,1-8,.46l-3.58-3.19a5.68,5.68,0,0,1-.45-8l33-37a5.65,5.65,0,0,1,4.22-1.87m0-4a9.63,9.63,0,0,0-7.21,3.21l-33,37a9.68,9.68,0,0,0,.77,13.63l3.57,3.18a9.69,9.69,0,0,0,13.63-.77l33-37A9.68,9.68,0,0,0,849.92,36l-3.57-3.19a9.64,9.64,0,0,0-6.42-2.43Z" transform="translate(-737.36)"/>
        </g>
        <path id="_38" data-name="38" d="M817.89,71.91h0a.9.9,0,0,1,1.05-.31,1.61,1.61,0,0,0,.6.08,1.41,1.41,0,0,0,1-.49,1.45,1.45,0,0,0,.36-1.13,1.87,1.87,0,0,0-.69-1.2,1.73,1.73,0,0,0-1.21-.51,1.32,1.32,0,0,0-1,.46,3.66,3.66,0,0,0-.52.81l-.55-.64a1.12,1.12,0,0,1-.15-1.21,1.29,1.29,0,0,0-.3-1.66,1.21,1.21,0,0,0-.86-.34,1.17,1.17,0,0,0-.82.43,1.29,1.29,0,0,0-.33.92,1.49,1.49,0,0,0,.14.53.91.91,0,0,1-.29,1.06h0a1,1,0,0,1-1.45-.35,3.27,3.27,0,0,1-.16-.47,2.77,2.77,0,0,1,.06-1.45,3.85,3.85,0,0,1,.82-1.43,3.23,3.23,0,0,1,2.36-1.18,2.47,2.47,0,0,1,2.5,3.31,2.52,2.52,0,0,1,1.66-.52,2.63,2.63,0,0,1,1.62.7,3.25,3.25,0,0,1,1.12,2.39,3.91,3.91,0,0,1-3.23,3.86,3.48,3.48,0,0,1-1,0A1.05,1.05,0,0,1,817.89,71.91Zm3.89-8.59a2.42,2.42,0,0,1-1.47.25,2.45,2.45,0,0,1-1.22-.59,2.64,2.64,0,0,1-.93-2,4,4,0,0,1,3.19-3.58,2.61,2.61,0,0,1,2.06.7,2.35,2.35,0,0,1,.74,1.18,2.44,2.44,0,0,1-.06,1.41,2.88,2.88,0,0,1,1.69-.31,2.75,2.75,0,0,1,1.51.71,3.27,3.27,0,0,1,1.18,2.33,3.5,3.5,0,0,1-1,2.52,3.83,3.83,0,0,1-2.22,1.32,3,3,0,0,1-2.64-.81,3.07,3.07,0,0,1-.91-1.39A2.81,2.81,0,0,1,821.78,63.32Zm-1.27-1.71a1.21,1.21,0,0,0,1.83-.08,1.21,1.21,0,0,0-.12-1.85,1.21,1.21,0,0,0-1.81.1,1.3,1.3,0,0,0-.37.94A1.27,1.27,0,0,0,820.51,61.61Zm3.32,3.23a2,2,0,0,0,1.29.56,1.42,1.42,0,0,0,1.09-.5,1.39,1.39,0,0,0,.36-1.1,1.92,1.92,0,0,0-.71-1.2,1.76,1.76,0,0,0-1.2-.49,1.39,1.39,0,0,0-1.06.5,1.28,1.28,0,0,0-.36,1.19A1.9,1.9,0,0,0,823.83,64.84Zm.26-8.32A2.35,2.35,0,1,1,828,54.63a2.27,2.27,0,0,1-.59,1.7,2.32,2.32,0,0,1-1.62.78A2.25,2.25,0,0,1,824.09,56.52Zm.81-.92a1.06,1.06,0,0,0,.82.28,1,1,0,0,0,.77-.37,1.1,1.1,0,0,0,.29-.81,1.08,1.08,0,0,0-.38-.78,1.05,1.05,0,0,0-.81-.28,1.07,1.07,0,0,0-.78.37,1.05,1.05,0,0,0-.28.81A1.08,1.08,0,0,0,824.9,55.6Zm12.52-6.53h0a1.1,1.1,0,0,1,1.59.57,4.08,4.08,0,0,1,.29,1.79,5.11,5.11,0,0,1-4.73,4.38,5.61,5.61,0,0,1-3.92-1.64,5.88,5.88,0,0,1-2.2-3.83,4.74,4.74,0,0,1,1.32-3.73,4.46,4.46,0,0,1,3-1.62,3.36,3.36,0,0,1,.89,0,1.08,1.08,0,0,1,.72,1.59h0a1.07,1.07,0,0,1-1.16.55,2.15,2.15,0,0,0-.8,0,2.35,2.35,0,0,0-1.35.78,2.47,2.47,0,0,0-.65,2A4.18,4.18,0,0,0,832,52.38a4.55,4.55,0,0,0,2.67,1.4,2.44,2.44,0,0,0,1.93-.86,2.17,2.17,0,0,0,.58-1.48,2.65,2.65,0,0,0-.24-1A1,1,0,0,1,837.42,49.07Z" transform="translate(-737.36)"/>
      </g>
    </g>
  </g>
</svg>
