<svg xmlns="http://www.w3.org/2000/svg" width="140.22" height="153.37" viewBox="0 0 140.22 153.37">
  <defs>
    <style>
      .cls-1 {
        fill: #d6eefa;
      }

      .cls-2 {
        fill: #48c4ef;
      }

      .cls-3, .cls-4 {
        fill: #d74440;
      }

      .cls-3 {
        stroke: #000;
        stroke-miterlimit: 10;
        stroke-width: 4px;
      }
    </style>
  </defs>
  <title>temperature</title>
  <g id="Layer_2" data-name="Layer 2">
    <g id="temp">
      <g id="temp-2" data-name="temp">
        <path class="cls-1" d="M100,12.1l30.28,26.36s18-17.9,0-29.9S104.61,4.1,100,12.1Z"/>
        <line class="cls-1" x1="7.12" y1="137.85" x2="16.22" y2="145.01"/>
        <path class="cls-2" d="M7.12,136.89l10.7,7.79s20.53-31.18,33.11-33.53,18.59-4.83,18.59-4.83L83.84,91.15l46.39-52.69L100.68,12.1l-60,67.28-3.06,8.36.71,8s-1.53,7.53-3.53,10.35S7.12,136.89,7.12,136.89Z"/>
        <path d="M116.57,4a13.41,13.41,0,0,1,9,3.4l6.21,5.54a13.53,13.53,0,0,1,1.08,19L70.08,102.29A13.48,13.48,0,0,1,60,106.77h-.9a25,25,0,0,0-18.64,8.29L11.05,148a4.07,4.07,0,0,1-5.71.32A4.07,4.07,0,0,1,5,142.64l29.42-33a25,25,0,0,0,6.05-20A13.46,13.46,0,0,1,43.76,78.8L106.49,8.48A13.52,13.52,0,0,1,116.57,4m0-4a17.47,17.47,0,0,0-13.06,5.82L40.77,76.14a17.49,17.49,0,0,0-4.25,14A21,21,0,0,1,31.45,107L2,140a8.08,8.08,0,0,0,.65,11.36h0A8.07,8.07,0,0,0,14,150.69l29.42-33a20.9,20.9,0,0,1,15.65-7H60A17.45,17.45,0,0,0,73.06,105L135.8,34.63A17.53,17.53,0,0,0,134.39,10l-6.2-5.53A17.42,17.42,0,0,0,116.57,0Z"/>
        <line class="cls-3" x1="17.82" y1="146.44" x2="5.82" y2="135.74"/>
        <line class="cls-3" x1="99.14" y1="10.72" x2="131.43" y2="39.53"/>
        <g id="redBar">
          <path class="cls-4" d="M71.13,85.84A7.66,7.66,0,0,1,66,83.91l-3.57-3.19a7.65,7.65,0,0,1-.61-10.79l33-37a7.67,7.67,0,0,1,5.72-2.54,7.58,7.58,0,0,1,5.08,1.93l3.57,3.18a7.65,7.65,0,0,1,.62,10.8l-33,37A7.64,7.64,0,0,1,71.13,85.84Z"/>
          <path d="M100.57,32.4h0a5.61,5.61,0,0,1,3.75,1.42L107.89,37a5.68,5.68,0,0,1,.46,8l-33,37a5.62,5.62,0,0,1-4.22,1.88,5.69,5.69,0,0,1-3.76-1.42L63.8,79.23a5.68,5.68,0,0,1-.45-8l33-37a5.65,5.65,0,0,1,4.22-1.87m0-4a9.63,9.63,0,0,0-7.21,3.21l-33,37a9.68,9.68,0,0,0,.77,13.63l3.57,3.18a9.69,9.69,0,0,0,13.63-.77l33-37A9.68,9.68,0,0,0,110.56,34L107,30.83a9.6,9.6,0,0,0-6.41-2.43Z"/>
        </g>
        <g id="_38" data-name="38">
          <path d="M78.53,69.91h0a.9.9,0,0,1,1-.31,1.61,1.61,0,0,0,.6.08,1.41,1.41,0,0,0,1-.49,1.45,1.45,0,0,0,.36-1.13,1.87,1.87,0,0,0-.69-1.2,1.73,1.73,0,0,0-1.21-.51,1.32,1.32,0,0,0-1,.46,3.66,3.66,0,0,0-.52.81L77.53,67a1.12,1.12,0,0,1-.15-1.21,1.3,1.3,0,0,0,.18-.64,1.32,1.32,0,0,0-.48-1,1.21,1.21,0,0,0-.86-.34,1.17,1.17,0,0,0-.82.43,1.29,1.29,0,0,0-.33.92,1.49,1.49,0,0,0,.14.53.91.91,0,0,1-.29,1.06h0a1,1,0,0,1-1.45-.35,3.27,3.27,0,0,1-.16-.47,2.77,2.77,0,0,1,.06-1.45A3.71,3.71,0,0,1,74.17,63a3.23,3.23,0,0,1,2.36-1.18A2.47,2.47,0,0,1,79,65.15a2.52,2.52,0,0,1,1.66-.52,2.63,2.63,0,0,1,1.62.7,3.25,3.25,0,0,1,1.12,2.39,3.91,3.91,0,0,1-3.23,3.86,3.47,3.47,0,0,1-1,0A1.05,1.05,0,0,1,78.53,69.91Z"/>
          <path d="M82.42,61.32A2.33,2.33,0,0,1,79.73,61a2.64,2.64,0,0,1-.93-2A4,4,0,0,1,82,55.44a2.61,2.61,0,0,1,2.06.7,2.35,2.35,0,0,1,.74,1.18,2.44,2.44,0,0,1-.06,1.41,2.87,2.87,0,0,1,1.69-.31,2.75,2.75,0,0,1,1.51.71,3.27,3.27,0,0,1,1.18,2.33,3.48,3.48,0,0,1-1,2.52A3.83,3.83,0,0,1,85.9,65.3a3,3,0,0,1-2.64-.81,3.07,3.07,0,0,1-.91-1.39A2.81,2.81,0,0,1,82.42,61.32Zm-1.27-1.71A1.21,1.21,0,0,0,83,59.53a1.21,1.21,0,0,0-.12-1.85,1.21,1.21,0,0,0-1.81.1,1.3,1.3,0,0,0-.37.94A1.27,1.27,0,0,0,81.15,59.61Zm3.32,3.23a2,2,0,0,0,1.29.56,1.44,1.44,0,0,0,1.09-.5,1.39,1.39,0,0,0,.36-1.1,1.92,1.92,0,0,0-.71-1.2,1.76,1.76,0,0,0-1.2-.49,1.39,1.39,0,0,0-1.06.5,1.31,1.31,0,0,0-.37,1.19A2,2,0,0,0,84.47,62.84Z"/>
          <path d="M84.73,54.52a2.35,2.35,0,1,1,3.91-1.89,2.27,2.27,0,0,1-.59,1.7,2.32,2.32,0,0,1-1.62.78A2.25,2.25,0,0,1,84.73,54.52Zm.81-.92a1.06,1.06,0,0,0,.82.28,1,1,0,0,0,.77-.37,1.1,1.1,0,0,0,.29-.81,1.08,1.08,0,0,0-.38-.78,1.05,1.05,0,0,0-.81-.28,1.07,1.07,0,0,0-.78.37,1.05,1.05,0,0,0-.28.81A1,1,0,0,0,85.54,53.6Z"/>
          <path d="M98.06,47.07h0a1.1,1.1,0,0,1,1.59.57,4.08,4.08,0,0,1,.29,1.79,5.11,5.11,0,0,1-4.73,4.38,5.61,5.61,0,0,1-3.92-1.64,5.88,5.88,0,0,1-2.2-3.83,4.74,4.74,0,0,1,1.32-3.73,4.46,4.46,0,0,1,3-1.62,3.36,3.36,0,0,1,.89,0A1.08,1.08,0,0,1,95,44.62h0a1.07,1.07,0,0,1-1.16.55,2.15,2.15,0,0,0-.8,0,2.35,2.35,0,0,0-1.35.78,2.47,2.47,0,0,0-.65,2,4.18,4.18,0,0,0,1.58,2.42,4.55,4.55,0,0,0,2.67,1.4,2.44,2.44,0,0,0,1.93-.86,2.17,2.17,0,0,0,.58-1.48,2.65,2.65,0,0,0-.24-1A1,1,0,0,1,98.06,47.07Z"/>
        </g>
      </g>
    </g>
  </g>
</svg>
