<svg xmlns="http://www.w3.org/2000/svg" width="121" height="134.46" viewBox="0 0 121 134.46">
  <defs>
    <style>
      .cls-1, .cls-2, .cls-3, .cls-4 {
        fill: #e6f9fe;
      }

      .cls-2, .cls-3, .cls-4 {
        stroke: #000;
      }

      .cls-2 {
        stroke-miterlimit: 10;
      }

      .cls-2, .cls-4 {
        stroke-width: 4px;
      }

      .cls-3, .cls-4 {
        stroke-linecap: round;
      }

      .cls-3 {
        stroke-linejoin: round;
        stroke-width: 4px;
      }

      .cls-4 {
        stroke-linejoin: bevel;
      }

      .cls-5 {
        fill: #562f26;
      }
    </style>
  </defs>
  <title>toiletpaper</title>
  <g id="Layer_2" data-name="Layer 2">
    <g id="toilet_paper" data-name="toilet paper">
      <g id="toiletpaper">
        <g id="toiletPaper-2" data-name="toiletPaper">
          <path class="cls-1" d="M102.84,4.18,23.65,1.79S3.81,14.11,4.05,31.73,2,70.88,2,70.88s68.65,32.71,71.29,32.71H96Z"/>
          <path class="cls-2" d="M2,52.09c0-29,11.19-49.53,25-49.53H93.06"/>
          <line class="cls-2" x1="94.47" y1="103.59" x2="72.5" y2="103.59"/>
          <polyline class="cls-3" points="2 52.09 2 131.94 12.1 125.35 24.16 131.94 37.25 125.35 49.32 131.94 62.4 125.35 73.29 132.46 73.29 62.94"/>
          <line class="cls-4" x1="7.29" y1="56.18" x2="12.71" y2="56.18"/>
          <line class="cls-4" x1="20.94" y1="56.18" x2="26.36" y2="56.18"/>
          <line class="cls-4" x1="34.6" y1="56.18" x2="40.01" y2="56.18"/>
          <line class="cls-4" x1="48.25" y1="56.18" x2="53.66" y2="56.18"/>
          <line class="cls-4" x1="61.9" y1="56.18" x2="67.31" y2="56.18"/>
          <g>
            <path class="cls-1" d="M96,103.76c-12.47,0-23-23.12-23-50.5C73,25.48,83.53,2,96,2s23,23.48,23,51.26C119,80.64,108.47,103.76,96,103.76Z"/>
            <path d="M96,4c9.93,0,21,20.23,21,49.26,0,13.45-2.46,26-6.93,35.41C106.1,97,101,101.76,96,101.76S85.9,97,81.93,88.67C77.46,79.28,75,66.71,75,53.26,75,24.23,86.07,4,96,4m0-4C82.19,0,71,24.27,71,53.26s11.19,52.5,25,52.5,25-23.5,25-52.5S109.81,0,96,0Z"/>
          </g>
          <g>
            <path class="cls-5" d="M94.65,65.56C93.54,65.56,91,61.28,91,53s2.63-12.79,3.7-12.79,3.7,4.48,3.7,12.79S95.76,65.56,94.65,65.56Z"/>
            <path d="M94.65,42.75C95.52,44.4,96.56,48,96.56,53s-1,8.51-1.91,10.09C93.79,61.5,92.74,58,92.74,53s1-8.59,1.91-10.24m0-4.34c-3,0-5.49,6.64-5.49,14.58s2.46,14.36,5.49,14.36,5.49-6.43,5.49-14.36-2.46-14.58-5.49-14.58Z"/>
          </g>
        </g>
      </g>
    </g>
  </g>
</svg>
