<svg xmlns="http://www.w3.org/2000/svg" width="157.22" height="120.03" viewBox="0 0 157.22 120.03">
  <defs>
    <style>
      .cls-1 {
        fill: #4dd59b;
      }

      .cls-1, .cls-2, .cls-3, .cls-4 {
        stroke: #000;
        stroke-linecap: round;
        stroke-linejoin: round;
        stroke-width: 4px;
      }

      .cls-2 {
        fill: #d6eefa;
      }

      .cls-3 {
        fill: none;
      }

      .cls-4 {
        fill: #fff;
      }
    </style>
  </defs>
  <title>Asset 10</title>
  <g id="Layer_2" data-name="Layer 2">
    <g id="vaccine">
      <g>
        <g>
          <polyline class="cls-1" points="99.37 28.33 123.12 19.83 109.43 41.38"/>
          <path class="cls-2" d="M36.82,102.11l70.59-54.42a5.46,5.46,0,0,0,1-7.65l-8-10.37a5.47,5.47,0,0,0-7.66-1L22.16,83.1"/>
          <line class="cls-3" x1="123.27" y1="20.02" x2="147.41" y2="2"/>
          <polyline class="cls-1" points="25.32 87.2 5.88 102.19 14.21 113 33.66 98.01"/>
          <line class="cls-4" x1="15.05" y1="73.87" x2="43.93" y2="111.34"/>
          <line class="cls-3" x1="2" y1="97.16" x2="18.09" y2="118.03"/>
          <line class="cls-3" x1="41.56" y1="83.6" x2="48.74" y2="92.92"/>
          <line class="cls-3" x1="51.83" y1="75.68" x2="59.01" y2="85"/>
          <line class="cls-3" x1="62.09" y1="67.77" x2="69.27" y2="77.09"/>
          <line class="cls-3" x1="72.36" y1="59.86" x2="79.54" y2="69.17"/>
          <line class="cls-3" x1="82.62" y1="51.94" x2="89.8" y2="61.26"/>
        </g>
        <path class="cls-2" d="M147.79,3.51,140.23,18a5.69,5.69,0,0,0,1.2,6.8l0,0a8.81,8.81,0,0,0,12.2-.3h0a5.64,5.64,0,0,0,1-6.26Z"/>
      </g>
    </g>
  </g>
</svg>
