<svg xmlns="http://www.w3.org/2000/svg" viewBox="0 0 157.22 120.03">
  <defs>
    <style>
      #vaccine .cls-1 {
        fill: #4dd59b;
      }

      #vaccine .cls-2, #vaccine .cls-4 {
        fill: #d6eefa;
      }

      #vaccine .cls-3 {
        fill: none;
      }

      #vaccine .cls-3, #vaccine .cls-4 {
        stroke: #000;
        stroke-linecap: round;
        stroke-linejoin: round;
        stroke-width: 4px;
      }
    </style>
  </defs>
  <g id="Layer_2" data-name="Layer 2">
    <g id="vaccine">
      <g id="vaccine-2" data-name="vaccine">
        <g id="needle">
          <path id="greenNeedle" class="cls-1" d="M33.66,98,14.21,113,5.88,102.19l19.44-15m84.11-45.82,13.69-21.55-23.75,8.5"/>
          <path id="blueNeedle" class="cls-2" d="M36.82,102.11l70.59-54.42a5.46,5.46,0,0,0,1-7.65l-8-10.37a5.47,5.47,0,0,0-7.66-1L22.16,83.1"/>
          <path id="outlineNeedle" class="cls-3" d="M99.37,28.33l23.75-8.5L109.43,41.38M36.82,102.11l70.59-54.42a5.46,5.46,0,0,0,1-7.65l-8-10.37a5.47,5.47,0,0,0-7.66-1L22.16,83.1M123.27,20,147.41,2M25.32,87.2l-19.44,15L14.21,113,33.66,98m10.27,13.33L15.05,73.87M2,97.16,18.09,118M41.56,83.6l7.18,9.32m3.09-17.24L59,85m3.08-17.23,7.18,9.32m3.09-17.23,7.18,9.31m3.08-17.23,7.18,9.32"/>
        </g>
        <path id="droplet" class="cls-4" d="M147.79,3.51,140.23,18a5.69,5.69,0,0,0,1.2,6.8l0,0a8.81,8.81,0,0,0,12.2-.3h0a5.64,5.64,0,0,0,1-6.26Z"/>
      </g>
    </g>
  </g>
</svg>
