<svg xmlns="http://www.w3.org/2000/svg" viewBox="0 0 135.82 166.55">
  <defs>
    <style>
      #frontLineWorker .cls-1 {
        fill: #ddb9af;
      }

      #frontLineWorker .cls-2 {
        fill: #48c4ef;
      }

      #frontLineWorker .cls-3 {
        fill: #d6eefa;
      }

      #frontLineWorker .cls-4 {
        fill: #4dd59b;
      }

      #frontLineWorker .cls-5 {
        fill: none;
        stroke: #000;
        stroke-linecap: round;
        stroke-linejoin: round;
        stroke-width: 4px;
      }
    </style>
  </defs>
  <g id="Layer_2" data-name="Layer 2">
    <g id="frontLineWorker">
      <g id="worker">
        <g id="colour">
          <path id="skin" class="cls-1" d="M105.71,63.86s19.39,2.63.62,22.7c0,0-4.37,26.59-24.28,35.45,0,0-4.21,6.89-.82,10.73a27,27,0,0,1,4.91,9.41l-17.56,9.32L50.14,139.33s7.93-8.52,5.14-15.31A45.34,45.34,0,0,1,30.93,93.13S7.52,63.64,27.53,66.78c0,0,5.92-21.39,36-23.24S105.71,63.86,105.71,63.86Z"/>
          <path id="mask-3" data-name="mask" class="cls-2" d="M31.9,98S43.76,87.35,51.08,84.42s24.39-14.07,49.84,12.36c0,0-3.94,29-33.13,28.23S31.9,98,31.9,98Z"/>
          <path id="glasses" class="cls-3" d="M27.56,63.86s45.49-13.36,78.15,0c0,0-5.44,23.46-38.51,9.23C67.2,73.09,38.16,89.32,27.56,63.86Z"/>
          <path id="clothingTeal" class="cls-4" d="M2,161.22s8.77-18.59,14.35-19.42,32.95-4.26,32.95-4.26l19.56,13L88.34,137l31.53,4.79,13.95,19.42S62.33,171.8,2,161.22ZM66,2s-31,6.59-33.53,10.12-13.85,9.77-13.77,21.3S18.92,49.12,21.32,53,26.9,62.7,26.9,62.7s11.59-12,17-12.9,13.66-7.67,23.3-6,26.13,3.85,32.89,13.58,5.62,6.49,5.62,6.49,8-16.17,8.05-20.76-1.29-20.59-3.2-23.37S91.41.63,66,2Z"/>
        </g>
        <g id="outlines">
          <path id="eyes" d="M56.22,67.61a3.76,3.76,0,1,1-3.76-3.75A3.75,3.75,0,0,1,56.22,67.61Zm24-4.58A3.76,3.76,0,1,0,84,66.78,3.75,3.75,0,0,0,80.25,63Z"/>
          <path id="workerOutlines" class="cls-5" d="M105.28,62.7S112.7,125,66.19,125C24.14,125,27.6,62.7,27.6,62.7S67.68,20.15,105.28,62.7Zm.43,1.16s17.83-37.93-.7-50.14C78.17-4,50.89,0,29.38,14.71c-5.76,3.94-20,18.8-2.48,48C26.9,62.7,76.79,50.33,105.71,63.86Zm-1.43,24.9s20.48-20.11,1.26-22.92m-78.49,0c-19.22,2.81,1.87,23.65,1.87,23.65M102,98C67.19,57.74,34,97.5,32.42,98m22.86,26s1.06,9.43-2.73,13.06c0,0-29.77,4.29-33.73,4S7.44,149.16,2,160.29m131.82,0c-4.55-9.32-13.75-20.06-16.82-19.87-4,.25-33.72-4-33.72-4-3.8-3.63-2.74-13.07-2.74-13.07M68.86,150.58l-20.55-13m40-.53L48.81,164.55M27.53,67.73C45.44,87.27,67.2,73.09,67.2,73.09c21.66,13.78,38.43-5.48,38.43-5.48"/>
        </g>
      </g>
    </g>
  </g>
</svg>
